<svg xmlns="http://www.w3.org/2000/svg" width="136" height="47" viewBox="0 0 136 47" fill="none">
<path d="M5.61328 39.5137H8.83449V40.3063H6.4112V41.7448H8.83449V42.508H6.4112V44.4749H8.83449V45.2382H5.61328V39.5137Z" fill="#ffffff"/>
<path d="M13.2656 39.3965H14.0635V45.2678H13.2656V39.3965Z" fill="#ffffff"/>
<path d="M22.4283 43.5356H19.2366C19.2957 43.9172 19.473 44.2108 19.7094 44.3869C19.9459 44.563 20.2118 44.6511 20.5074 44.6511C20.9506 44.6511 21.3348 44.475 21.6303 44.0933L22.2214 44.5337C21.7781 45.0915 21.2166 45.3557 20.4778 45.3557C19.9163 45.3557 19.4435 45.1795 19.0888 44.7979C18.7047 44.4163 18.5273 43.9465 18.5273 43.3888C18.5273 42.8604 18.7047 42.3906 19.0888 42.009C19.473 41.6274 19.9459 41.4219 20.4778 41.4219C21.0097 41.4219 21.4826 41.6274 21.8668 42.009C22.2509 42.42 22.4283 42.9191 22.4283 43.5356ZM19.3253 42.9191H21.6303C21.3644 42.42 21.0097 42.1558 20.5074 42.1558C19.9459 42.1558 19.5617 42.42 19.3253 42.9191Z" fill="#ffffff"/>
<path d="M26.4492 41.5396H27.2767L28.3406 43.6826L29.3749 41.5396H30.2024L28.311 45.4146L26.4492 41.5396Z" fill="#ffffff"/>
<path d="M37.3814 41.5393H38.1793V45.2676H37.3814V44.5337C36.9972 45.0915 36.5243 45.385 35.9629 45.385C35.4605 45.385 35.0467 45.1795 34.6921 44.7979C34.3375 44.4163 34.1602 43.9465 34.1602 43.3888C34.1602 42.8603 34.3375 42.42 34.6921 42.009C35.0467 41.598 35.4605 41.4219 35.9333 41.4219C36.2288 41.4219 36.4948 41.5099 36.7608 41.6567C37.0267 41.8035 37.2336 42.0384 37.3814 42.2732V41.5393ZM37.47 43.4181C37.47 43.0658 37.3518 42.7723 37.1154 42.5374C36.879 42.3026 36.5835 42.1851 36.2288 42.1851C35.9037 42.1851 35.6082 42.3026 35.3423 42.5374C35.0763 42.7723 34.9581 43.0658 34.9581 43.3888C34.9581 43.741 35.0763 44.0346 35.3127 44.2988C35.5491 44.5337 35.8446 44.6805 36.1993 44.6805C36.5539 44.6805 36.8494 44.563 37.0858 44.2988C37.3223 44.0346 37.47 43.741 37.47 43.4181Z" fill="#ffffff"/>
<path d="M43.0854 40.4531H43.8834V41.5393H44.6517V42.2439H43.8834V45.2383H43.0854V42.2439H42.4648V41.51H43.0854V40.4531Z" fill="#ffffff"/>
<path d="M52.6001 43.5356H49.4085C49.4676 43.9172 49.6449 44.2108 49.8813 44.3869C50.1177 44.563 50.3837 44.6511 50.6792 44.6511C51.1225 44.6511 51.5067 44.475 51.8022 44.0933L52.3933 44.5337C51.95 45.0915 51.3885 45.3557 50.6497 45.3557C50.0882 45.3557 49.6153 45.1795 49.2607 44.7979C48.9061 44.4163 48.6992 43.9465 48.6992 43.3888C48.6992 42.8604 48.8765 42.3906 49.2607 42.009C49.6449 41.6274 50.1177 41.4219 50.6497 41.4219C51.1816 41.4219 51.6545 41.6274 52.0386 42.009C52.4228 42.42 52.6001 42.9191 52.6001 43.5356ZM49.4971 42.9191H51.8022C51.5362 42.42 51.1816 42.1558 50.6792 42.1558C50.1177 42.1558 49.704 42.42 49.4971 42.9191Z" fill="#ffffff"/>
<path d="M63.1523 39.5137H63.9503V41.7154H66.7282V39.5137H67.4965V45.2676H66.7282V42.508H63.9503V45.2676H63.1523V39.5137Z" fill="#ffffff"/>
<path d="M75.3267 41.5393H76.1246V45.2676H75.3267V44.5337C74.9425 45.0915 74.4697 45.385 73.9082 45.385C73.4058 45.385 72.992 45.1795 72.6374 44.7979C72.2828 44.4163 72.1055 43.9465 72.1055 43.3888C72.1055 42.8603 72.2828 42.42 72.6374 42.009C72.992 41.6274 73.4058 41.4219 73.8786 41.4219C74.1741 41.4219 74.4401 41.5099 74.7061 41.6567C74.972 41.8035 75.1789 42.0384 75.3267 42.2732V41.5393ZM75.4449 43.4181C75.4449 43.0658 75.3267 42.7723 75.0903 42.5374C74.8538 42.3026 74.5583 42.1851 74.2037 42.1851C73.8786 42.1851 73.5831 42.3026 73.3171 42.5374C73.0511 42.7723 72.9329 43.0658 72.9329 43.3888C72.9329 43.741 73.0511 44.0346 73.2876 44.2988C73.524 44.5337 73.8195 44.6805 74.1741 44.6805C74.5288 44.6805 74.8243 44.563 75.0607 44.2988C75.2971 44.0346 75.4449 43.741 75.4449 43.4181Z" fill="#ffffff"/>
<path d="M81.6824 41.5397V42.303C82.0666 41.7452 82.5394 41.4517 83.1305 41.4517C83.6033 41.4517 84.0171 41.6572 84.3717 42.0388C84.7263 42.4204 84.9036 42.8901 84.9036 43.4186C84.9036 43.947 84.7263 44.4167 84.3717 44.8277C84.0171 45.2093 83.6033 45.4148 83.1305 45.4148C82.8645 45.4148 82.5986 45.3561 82.3326 45.2093C82.0666 45.0625 81.8597 44.857 81.712 44.5928V47.0881H80.9141V41.6278H81.6824V41.5397ZM84.1057 43.3892C84.1057 43.0663 83.9875 42.7727 83.7215 42.5379C83.4556 42.303 83.1896 42.1562 82.835 42.1562C82.4803 42.1562 82.1848 42.2736 81.9484 42.5085C81.712 42.7434 81.5642 43.0369 81.5642 43.3598C81.5642 43.7121 81.6824 44.0057 81.9484 44.2405C82.1848 44.5048 82.4803 44.6222 82.835 44.6222C83.1896 44.6222 83.4851 44.5048 83.7215 44.2405C83.958 43.9763 84.1057 43.7415 84.1057 43.3892Z" fill="#ffffff"/>
<path d="M90.3113 41.5397V42.303C90.6955 41.7452 91.1683 41.4517 91.7594 41.4517C92.2322 41.4517 92.646 41.6572 93.0006 42.0388C93.3552 42.4204 93.5325 42.8901 93.5325 43.4186C93.5325 43.947 93.3552 44.4167 93.0006 44.8277C92.646 45.2093 92.2322 45.4148 91.7594 45.4148C91.4934 45.4148 91.2275 45.3561 90.9615 45.2093C90.6955 45.0625 90.4886 44.857 90.3409 44.5928V47.0881H89.543V41.6278H90.3113V41.5397ZM92.7346 43.3892C92.7346 43.0663 92.6164 42.7727 92.3504 42.5379C92.0845 42.303 91.8185 42.1562 91.4639 42.1562C91.1092 42.1562 90.8137 42.2736 90.5773 42.5085C90.3409 42.7434 90.1931 43.0369 90.1931 43.3598C90.1931 43.7121 90.3113 44.0057 90.5477 44.2405C90.7842 44.5048 91.0797 44.6222 91.4343 44.6222C91.7889 44.6222 92.0845 44.5048 92.3209 44.2405C92.5573 43.9763 92.7346 43.7415 92.7346 43.3892Z" fill="#ffffff"/>
<path d="M97.9062 40.3064C97.9062 40.1302 97.9654 40.0128 98.0836 39.8954C98.2018 39.7779 98.3495 39.7192 98.5269 39.7192C98.7042 39.7192 98.8224 39.7779 98.9406 39.8954C99.0588 40.0128 99.1179 40.1596 99.1179 40.3064C99.1179 40.4825 99.0588 40.5999 98.9406 40.7174C98.8224 40.8348 98.6746 40.8935 98.5269 40.8935C98.3495 40.8935 98.2018 40.8348 98.0836 40.7174C97.9654 40.6293 97.9062 40.4825 97.9062 40.3064ZM98.1427 41.5393H98.911V45.2676H98.1427V41.5393Z" fill="#ffffff"/>
<path d="M103.43 45.2676V41.5393H104.198V42.1558C104.434 41.8916 104.641 41.7154 104.819 41.598C104.996 41.4806 105.203 41.4219 105.439 41.4219C105.764 41.4219 106.06 41.5393 106.296 41.7448C106.533 41.9796 106.651 42.2439 106.651 42.5374V45.2382H105.853V42.7723C105.853 42.5668 105.794 42.3906 105.646 42.2732C105.528 42.1264 105.351 42.0677 105.144 42.0677C104.878 42.0677 104.641 42.1851 104.464 42.3906C104.287 42.6255 104.168 42.8897 104.168 43.1833V45.2089H103.43V45.2676Z" fill="#ffffff"/>
<path d="M114.897 43.5356H111.705C111.764 43.9172 111.942 44.2108 112.178 44.3869C112.415 44.563 112.681 44.6511 112.976 44.6511C113.419 44.6511 113.804 44.475 114.099 44.0933L114.69 44.5337C114.247 45.0915 113.685 45.3557 112.947 45.3557C112.385 45.3557 111.912 45.1795 111.558 44.7979C111.203 44.4163 110.996 43.9465 110.996 43.3888C110.996 42.8604 111.173 42.3906 111.558 42.009C111.942 41.6274 112.415 41.4219 112.947 41.4219C113.478 41.4219 113.951 41.6274 114.336 42.009C114.72 42.42 114.897 42.9191 114.897 43.5356ZM111.794 42.9191H114.099C113.833 42.42 113.478 42.1558 112.976 42.1558C112.415 42.1558 112.03 42.42 111.794 42.9191Z" fill="#ffffff"/>
<path d="M121.577 41.9801L121.045 42.4498C120.897 42.3617 120.779 42.2736 120.69 42.2443C120.601 42.1856 120.483 42.1562 120.335 42.1562C120.01 42.1562 119.863 42.2736 119.863 42.5085C119.863 42.6846 120.069 42.8314 120.483 43.0076C120.897 43.1837 121.192 43.3305 121.37 43.536C121.547 43.7121 121.636 43.947 121.636 44.2112C121.636 44.5341 121.518 44.7983 121.252 45.0332C120.986 45.268 120.69 45.3855 120.335 45.3855C119.804 45.3855 119.36 45.1506 119.035 44.6515L119.656 44.358C119.863 44.5635 120.099 44.6809 120.335 44.6809C120.513 44.6809 120.631 44.6222 120.779 44.5341C120.897 44.446 120.956 44.3286 120.956 44.2112C120.956 44.0057 120.749 43.8295 120.306 43.6534C119.863 43.4773 119.567 43.3305 119.419 43.1543C119.242 42.9782 119.183 42.7727 119.183 42.5379C119.183 42.2149 119.301 41.9801 119.538 41.7746C119.774 41.5691 120.069 41.4517 120.424 41.4517C120.779 41.4517 121.133 41.6278 121.577 41.9801Z" fill="#ffffff"/>
<path d="M128.167 41.9801L127.635 42.4498C127.487 42.3617 127.369 42.2736 127.28 42.2443C127.191 42.1856 127.073 42.1562 126.925 42.1562C126.6 42.1562 126.452 42.2736 126.452 42.5085C126.452 42.6846 126.659 42.8314 127.073 43.0076C127.487 43.1837 127.782 43.3305 127.96 43.536C128.137 43.7121 128.226 43.947 128.226 44.2112C128.226 44.5341 128.107 44.7983 127.841 45.0332C127.575 45.268 127.28 45.3855 126.925 45.3855C126.393 45.3855 125.95 45.1506 125.625 44.6515L126.246 44.358C126.452 44.5635 126.689 44.6809 126.925 44.6809C127.103 44.6809 127.221 44.6222 127.369 44.5341C127.487 44.446 127.546 44.3286 127.546 44.2112C127.546 44.0057 127.339 43.8295 126.896 43.6534C126.452 43.4773 126.157 43.3305 126.009 43.1543C125.832 42.9782 125.773 42.7727 125.773 42.5379C125.773 42.2149 125.891 41.9801 126.127 41.7746C126.364 41.5691 126.659 41.4517 127.014 41.4517C127.369 41.4517 127.723 41.6278 128.167 41.9801Z" fill="#ffffff"/>
<path d="M30.9099 28.0945C33.0154 28.0945 34.7222 26.399 34.7222 24.3075C34.7222 22.216 33.0154 20.5205 30.9099 20.5205C28.8045 20.5205 27.0977 22.216 27.0977 24.3075C27.0977 26.399 28.8045 28.0945 30.9099 28.0945Z" fill="#ED7E22"/>
<path d="M58.3669 23.7493C60.4724 23.7493 62.1792 22.0538 62.1792 19.9623C62.1792 17.8708 60.4724 16.1753 58.3669 16.1753C56.2615 16.1753 54.5547 17.8708 54.5547 19.9623C54.5547 22.0538 56.2615 23.7493 58.3669 23.7493Z" fill="#ED7E22"/>
<path d="M103.699 27.9768C105.804 27.9768 107.511 26.2813 107.511 24.1898C107.511 22.0983 105.804 20.4028 103.699 20.4028C101.594 20.4028 99.8867 22.0983 99.8867 24.1898C99.8867 26.2813 101.594 27.9768 103.699 27.9768Z" fill="#ED7E22"/>
<path d="M131.772 4.16882H131.477V1.6148H130.531V1.35059H132.718V1.6148H131.772V4.16882Z" fill="#D73327"/>
<path d="M134.608 3.6404L135.583 1.35059H136.026V4.16882H135.731V1.73222L134.696 4.16882H134.549L133.514 1.73222V4.16882H133.219V1.35059H133.662L134.608 3.6404Z" fill="#D73327"/>
<path d="M48.2874 34.0538C47.1644 34.0538 46.2188 33.1438 46.2188 31.9989V22.1644C46.2188 15.5885 51.5973 10.2456 58.217 10.2456C64.8367 10.2456 70.2153 15.5885 70.2153 22.1644V32.0282C70.2153 33.1438 69.2992 34.0832 68.1466 34.0832C66.9941 34.0832 66.0779 33.1731 66.0779 32.0282V22.1644C66.0779 17.849 62.5612 14.3262 58.1875 14.3262C53.8433 14.3262 50.3265 17.8196 50.297 22.1644V32.0282C50.3561 33.1438 49.44 34.0538 48.2874 34.0538Z" fill="url(#paint0_radial_22848_4161)"/>
<path d="M4.78748 7.72087C4.78748 5.72462 5.5854 3.81643 7.00391 2.40732C8.42243 0.998196 10.3433 0.205566 12.3529 0.205566H17.1404C18.2634 0.205566 19.209 1.11562 19.209 2.26053C19.209 3.37608 18.2929 4.3155 17.1404 4.3155H12.3529C11.4368 4.3155 10.5797 4.66778 9.92959 5.31362C9.27944 5.95947 8.92482 6.81081 8.92482 7.72087V10.2162H16.1356C17.2586 10.2162 18.2043 11.1262 18.2043 12.2711C18.2043 13.3867 17.2881 14.3261 16.1356 14.3261H8.92482V32.0282C8.92482 33.1437 8.00869 34.0831 6.85615 34.0831C5.73316 34.0831 4.78748 33.1731 4.78748 32.0282V14.2968H2.06867C0.945676 14.2968 0 13.3867 0 12.2418C0 11.1262 0.916123 10.1868 2.06867 10.1868H4.81704V7.72087H4.78748Z" fill="#D73327"/>
<path d="M74.62 7.72087C74.62 5.72462 75.4179 3.81643 76.8365 2.40732C78.255 0.998196 80.1759 0.205566 82.1854 0.205566H86.9729C88.0959 0.205566 89.0416 1.11562 89.0416 2.26053C89.0416 3.37608 88.1255 4.3155 86.9729 4.3155H82.1559C81.2398 4.3155 80.3827 4.66778 79.7326 5.31362C79.0824 5.95947 78.7278 6.81081 78.7278 7.72087V10.2162H85.9386C87.0616 10.2162 88.0072 11.1262 88.0072 12.2711C88.0072 13.3867 87.0911 14.3261 85.9386 14.3261H78.7278V32.0282C78.7278 33.1437 77.8117 34.0831 76.6591 34.0831C75.5361 34.0831 74.5905 33.1731 74.5905 32.0282V14.2968H71.8421C70.7191 14.2968 69.7734 13.3867 69.7734 12.2418C69.7734 11.1262 70.6896 10.1868 71.8421 10.1868H74.5905V7.72087H74.62Z" fill="#D73327"/>
<path d="M41.9958 10.04C43.1483 10.04 44.0645 10.9501 44.0645 12.095V22.0469C44.0645 28.6815 38.6564 34.0538 31.9775 34.0538C25.2987 34.0538 19.8906 28.6815 19.8906 22.0469V12.095C19.8906 10.9501 20.8067 10.04 21.9593 10.04C23.1118 10.04 24.028 10.9501 24.028 12.095V22.0469C24.028 26.421 27.5742 29.9438 31.9775 29.9438C36.3808 29.9438 39.9271 26.421 39.9271 22.0469V12.095C39.9271 10.9501 40.8433 10.04 41.9958 10.04Z" fill="url(#paint1_radial_22848_4161)"/>
<path d="M112.179 10.04C113.332 10.04 114.248 10.9501 114.248 12.095V22.0469C114.248 28.6815 108.84 34.0538 102.161 34.0538C95.4823 34.0538 90.0742 28.6815 90.0742 22.0469V12.095C90.0742 10.9501 90.9903 10.04 92.1429 10.04C93.2954 10.04 94.2116 10.9501 94.2116 12.095V22.0469C94.2116 26.421 97.7578 29.9438 102.161 29.9438C106.564 29.9438 110.111 26.421 110.111 22.0469V12.095C110.111 10.9501 111.027 10.04 112.179 10.04Z" fill="url(#paint2_radial_22848_4161)"/>
<path d="M118.742 34.1418C117.648 34.1418 116.762 33.2611 116.762 32.1749V1.9669C116.762 0.880699 117.648 0 118.742 0C119.835 0 120.722 0.880699 120.722 1.9669V32.1749C120.692 33.2611 119.835 34.1418 118.742 34.1418Z" fill="#D73327"/>
<path d="M126.308 34.1418C125.215 34.1418 124.328 33.2611 124.328 32.1749V1.9669C124.328 0.880699 125.215 0 126.308 0C127.402 0 128.288 0.880699 128.288 1.9669V32.1749C128.288 33.2611 127.402 34.1418 126.308 34.1418Z" fill="#D73327"/>
<defs fill="#000000">
<radialGradient id="paint0_radial_22848_4161" cx="0" cy="0" r="1" gradientUnits="userSpaceOnUse" gradientTransform="translate(58.5436 2.44328) scale(21.2194 21.0788)" fill="#000000">
<stop offset="6.92613e-08" stop-color="#C13E27" fill="#000000"/>
<stop offset="0.3313" stop-color="#F08321" fill="#000000"/>
<stop offset="1" stop-color="#C13E27" fill="#000000"/>
</radialGradient>
<radialGradient id="paint1_radial_22848_4161" cx="0" cy="0" r="1" gradientUnits="userSpaceOnUse" gradientTransform="translate(25.8754 36.9955) scale(16.6653 16.5549)" fill="#000000">
<stop offset="6.92613e-08" stop-color="#C13E27" fill="#000000"/>
<stop offset="0.2821" stop-color="#F08321" fill="#000000"/>
<stop offset="1" stop-color="#C13E27" fill="#000000"/>
</radialGradient>
<radialGradient id="paint2_radial_22848_4161" cx="0" cy="0" r="1" gradientUnits="userSpaceOnUse" gradientTransform="translate(111.721 32.1775) scale(11.074 11.0006)" fill="#000000">
<stop offset="6.92613e-08" stop-color="#C13E27" fill="#000000"/>
<stop offset="0.1615" stop-color="#F08321" fill="#000000"/>
<stop offset="1" stop-color="#C13E27" fill="#000000"/>
</radialGradient>
</defs>
</svg>